<mxfile host="Electron" modified="2024-05-28T14:16:29.694Z" agent="Mozilla/5.0 (Macintosh; Intel Mac OS X 10_15_7) AppleWebKit/537.36 (KHTML, like Gecko) draw.io/24.4.8 Chrome/124.0.6367.207 Electron/30.0.6 Safari/537.36" etag="PkW3pbHcoeOYduouBwj7" version="24.4.8" type="device">
  <diagram name="Page-1" id="HHMNUNKBZiyyof-pQxcI">
    <mxGraphModel dx="3562" dy="1454" grid="1" gridSize="10" guides="1" tooltips="1" connect="1" arrows="1" fold="1" page="1" pageScale="1" pageWidth="1654" pageHeight="1169" math="0" shadow="0">
      <root>
        <mxCell id="0" />
        <mxCell id="1" parent="0" />
        <mxCell id="m60XX_yXv6EZRLRGa9p_-1" value="" style="endArrow=none;html=1;rounded=0;" parent="1" edge="1">
          <mxGeometry width="50" height="50" relative="1" as="geometry">
            <mxPoint x="383.67" y="480" as="sourcePoint" />
            <mxPoint x="383.67" y="160" as="targetPoint" />
          </mxGeometry>
        </mxCell>
        <mxCell id="m60XX_yXv6EZRLRGa9p_-2" value="" style="endArrow=none;html=1;rounded=0;" parent="1" edge="1">
          <mxGeometry width="50" height="50" relative="1" as="geometry">
            <mxPoint x="463.67" y="480" as="sourcePoint" />
            <mxPoint x="463.67" y="160" as="targetPoint" />
          </mxGeometry>
        </mxCell>
        <mxCell id="m60XX_yXv6EZRLRGa9p_-3" value="" style="rounded=0;whiteSpace=wrap;html=1;fillStyle=hatch;fillColor=#000000;strokeColor=none;" parent="1" vertex="1">
          <mxGeometry x="383.67" y="160" width="80" height="120" as="geometry" />
        </mxCell>
        <mxCell id="m60XX_yXv6EZRLRGa9p_-4" value="" style="rounded=0;whiteSpace=wrap;html=1;fillStyle=hatch;fillColor=#000000;strokeColor=none;gradientColor=none;" parent="1" vertex="1">
          <mxGeometry x="383.67" y="320" width="80" height="160" as="geometry" />
        </mxCell>
        <mxCell id="m60XX_yXv6EZRLRGa9p_-5" value="" style="rounded=0;whiteSpace=wrap;html=1;" parent="1" vertex="1">
          <mxGeometry x="383.67" y="280" width="80" height="50" as="geometry" />
        </mxCell>
        <mxCell id="m60XX_yXv6EZRLRGa9p_-19" style="edgeStyle=orthogonalEdgeStyle;rounded=0;orthogonalLoop=1;jettySize=auto;html=1;entryX=1;entryY=0.5;entryDx=0;entryDy=0;" parent="1" source="m60XX_yXv6EZRLRGa9p_-6" target="m60XX_yXv6EZRLRGa9p_-17" edge="1">
          <mxGeometry relative="1" as="geometry" />
        </mxCell>
        <mxCell id="m60XX_yXv6EZRLRGa9p_-20" value="2. sem_wait()" style="edgeLabel;html=1;align=center;verticalAlign=middle;resizable=0;points=[];" parent="m60XX_yXv6EZRLRGa9p_-19" vertex="1" connectable="0">
          <mxGeometry x="-0.1289" relative="1" as="geometry">
            <mxPoint x="4" y="-16" as="offset" />
          </mxGeometry>
        </mxCell>
        <mxCell id="m60XX_yXv6EZRLRGa9p_-27" style="rounded=0;orthogonalLoop=1;jettySize=auto;html=1;" parent="1" source="m60XX_yXv6EZRLRGa9p_-6" target="m60XX_yXv6EZRLRGa9p_-26" edge="1">
          <mxGeometry relative="1" as="geometry" />
        </mxCell>
        <mxCell id="m60XX_yXv6EZRLRGa9p_-28" value="3. get candidature prefixes" style="edgeLabel;html=1;align=center;verticalAlign=middle;resizable=0;points=[];" parent="m60XX_yXv6EZRLRGa9p_-27" vertex="1" connectable="0">
          <mxGeometry x="-0.4265" y="2" relative="1" as="geometry">
            <mxPoint x="-8" y="-62" as="offset" />
          </mxGeometry>
        </mxCell>
        <mxCell id="m60XX_yXv6EZRLRGa9p_-34" style="edgeStyle=orthogonalEdgeStyle;rounded=0;orthogonalLoop=1;jettySize=auto;html=1;entryX=0;entryY=0.5;entryDx=0;entryDy=0;" parent="1" source="m60XX_yXv6EZRLRGa9p_-6" target="m60XX_yXv6EZRLRGa9p_-30" edge="1">
          <mxGeometry relative="1" as="geometry" />
        </mxCell>
        <mxCell id="m60XX_yXv6EZRLRGa9p_-35" value="4./10. write 1 prefix" style="edgeLabel;html=1;align=center;verticalAlign=middle;resizable=0;points=[];" parent="m60XX_yXv6EZRLRGa9p_-34" vertex="1" connectable="0">
          <mxGeometry x="-0.2375" y="3" relative="1" as="geometry">
            <mxPoint x="8" y="-12" as="offset" />
          </mxGeometry>
        </mxCell>
        <mxCell id="m60XX_yXv6EZRLRGa9p_-41" style="edgeStyle=orthogonalEdgeStyle;rounded=0;orthogonalLoop=1;jettySize=auto;html=1;entryX=0.5;entryY=0;entryDx=0;entryDy=0;" parent="1" source="m60XX_yXv6EZRLRGa9p_-6" target="m60XX_yXv6EZRLRGa9p_-36" edge="1">
          <mxGeometry relative="1" as="geometry">
            <Array as="points">
              <mxPoint x="100" y="540" />
              <mxPoint x="1180" y="540" />
              <mxPoint x="1180" y="110" />
              <mxPoint x="852" y="110" />
            </Array>
          </mxGeometry>
        </mxCell>
        <mxCell id="m60XX_yXv6EZRLRGa9p_-42" value="5. sem_ post" style="edgeLabel;html=1;align=center;verticalAlign=middle;resizable=0;points=[];" parent="m60XX_yXv6EZRLRGa9p_-41" vertex="1" connectable="0">
          <mxGeometry x="-0.5819" y="-6" relative="1" as="geometry">
            <mxPoint x="717" y="-66" as="offset" />
          </mxGeometry>
        </mxCell>
        <mxCell id="m60XX_yXv6EZRLRGa9p_-46" style="edgeStyle=orthogonalEdgeStyle;rounded=0;orthogonalLoop=1;jettySize=auto;html=1;entryX=0;entryY=0.5;entryDx=0;entryDy=0;" parent="1" source="m60XX_yXv6EZRLRGa9p_-6" target="m60XX_yXv6EZRLRGa9p_-43" edge="1">
          <mxGeometry relative="1" as="geometry">
            <Array as="points">
              <mxPoint x="70" y="650" />
            </Array>
          </mxGeometry>
        </mxCell>
        <mxCell id="m60XX_yXv6EZRLRGa9p_-47" value="9. sem_wait" style="edgeLabel;html=1;align=center;verticalAlign=middle;resizable=0;points=[];" parent="m60XX_yXv6EZRLRGa9p_-46" vertex="1" connectable="0">
          <mxGeometry x="0.3303" y="-4" relative="1" as="geometry">
            <mxPoint x="22" y="-14" as="offset" />
          </mxGeometry>
        </mxCell>
        <mxCell id="m60XX_yXv6EZRLRGa9p_-64" style="edgeStyle=orthogonalEdgeStyle;rounded=0;orthogonalLoop=1;jettySize=auto;html=1;" parent="1" source="m60XX_yXv6EZRLRGa9p_-6" target="m60XX_yXv6EZRLRGa9p_-61" edge="1">
          <mxGeometry relative="1" as="geometry">
            <Array as="points">
              <mxPoint x="20" y="740" />
              <mxPoint x="1490" y="740" />
              <mxPoint x="1490" y="49" />
            </Array>
          </mxGeometry>
        </mxCell>
        <mxCell id="m60XX_yXv6EZRLRGa9p_-66" value="11. generateReport" style="edgeLabel;html=1;align=center;verticalAlign=middle;resizable=0;points=[];" parent="m60XX_yXv6EZRLRGa9p_-64" vertex="1" connectable="0">
          <mxGeometry x="-0.4828" y="2" relative="1" as="geometry">
            <mxPoint x="465" y="-8" as="offset" />
          </mxGeometry>
        </mxCell>
        <mxCell id="m60XX_yXv6EZRLRGa9p_-6" value="Parent" style="rounded=1;whiteSpace=wrap;html=1;" parent="1" vertex="1">
          <mxGeometry x="10" y="275" width="120" height="60" as="geometry" />
        </mxCell>
        <mxCell id="m60XX_yXv6EZRLRGa9p_-44" style="edgeStyle=orthogonalEdgeStyle;rounded=0;orthogonalLoop=1;jettySize=auto;html=1;entryX=1;entryY=0.5;entryDx=0;entryDy=0;" parent="1" source="m60XX_yXv6EZRLRGa9p_-7" target="m60XX_yXv6EZRLRGa9p_-43" edge="1">
          <mxGeometry relative="1" as="geometry">
            <Array as="points">
              <mxPoint x="1240" y="210" />
              <mxPoint x="1240" y="650" />
            </Array>
          </mxGeometry>
        </mxCell>
        <mxCell id="m60XX_yXv6EZRLRGa9p_-45" value="8. sem_post" style="edgeLabel;html=1;align=center;verticalAlign=middle;resizable=0;points=[];" parent="m60XX_yXv6EZRLRGa9p_-44" vertex="1" connectable="0">
          <mxGeometry x="0.5217" y="-3" relative="1" as="geometry">
            <mxPoint x="3" y="-7" as="offset" />
          </mxGeometry>
        </mxCell>
        <mxCell id="m60XX_yXv6EZRLRGa9p_-48" style="edgeStyle=orthogonalEdgeStyle;rounded=0;orthogonalLoop=1;jettySize=auto;html=1;" parent="1" source="m60XX_yXv6EZRLRGa9p_-7" edge="1">
          <mxGeometry relative="1" as="geometry">
            <mxPoint x="880" y="210" as="targetPoint" />
            <Array as="points">
              <mxPoint x="882" y="210" />
            </Array>
          </mxGeometry>
        </mxCell>
        <mxCell id="m60XX_yXv6EZRLRGa9p_-50" value="6. sem_wait" style="edgeLabel;html=1;align=center;verticalAlign=middle;resizable=0;points=[];" parent="m60XX_yXv6EZRLRGa9p_-48" vertex="1" connectable="0">
          <mxGeometry x="0.1989" y="1" relative="1" as="geometry">
            <mxPoint x="15" y="-12" as="offset" />
          </mxGeometry>
        </mxCell>
        <mxCell id="m60XX_yXv6EZRLRGa9p_-55" style="edgeStyle=orthogonalEdgeStyle;rounded=0;orthogonalLoop=1;jettySize=auto;html=1;entryX=0.5;entryY=1;entryDx=0;entryDy=0;curved=1;exitX=0.5;exitY=1;exitDx=0;exitDy=0;" parent="1" source="m60XX_yXv6EZRLRGa9p_-7" target="m60XX_yXv6EZRLRGa9p_-9" edge="1">
          <mxGeometry relative="1" as="geometry">
            <Array as="points">
              <mxPoint x="1050" y="260" />
              <mxPoint x="730" y="260" />
            </Array>
          </mxGeometry>
        </mxCell>
        <mxCell id="m60XX_yXv6EZRLRGa9p_-56" value="7. reads" style="edgeLabel;html=1;align=center;verticalAlign=middle;resizable=0;points=[];" parent="m60XX_yXv6EZRLRGa9p_-55" vertex="1" connectable="0">
          <mxGeometry x="-0.2813" y="1" relative="1" as="geometry">
            <mxPoint y="9" as="offset" />
          </mxGeometry>
        </mxCell>
        <mxCell id="m60XX_yXv6EZRLRGa9p_-59" style="rounded=0;orthogonalLoop=1;jettySize=auto;html=1;" parent="1" source="m60XX_yXv6EZRLRGa9p_-7" target="m60XX_yXv6EZRLRGa9p_-26" edge="1">
          <mxGeometry relative="1" as="geometry" />
        </mxCell>
        <mxCell id="m60XX_yXv6EZRLRGa9p_-60" value="7.1 getFilesWith Prefix" style="edgeLabel;html=1;align=center;verticalAlign=middle;resizable=0;points=[];" parent="m60XX_yXv6EZRLRGa9p_-59" vertex="1" connectable="0">
          <mxGeometry x="0.3268" y="-1" relative="1" as="geometry">
            <mxPoint x="65" y="-15" as="offset" />
          </mxGeometry>
        </mxCell>
        <mxCell id="m60XX_yXv6EZRLRGa9p_-62" style="rounded=0;orthogonalLoop=1;jettySize=auto;html=1;" parent="1" source="m60XX_yXv6EZRLRGa9p_-7" target="m60XX_yXv6EZRLRGa9p_-61" edge="1">
          <mxGeometry relative="1" as="geometry" />
        </mxCell>
        <mxCell id="m60XX_yXv6EZRLRGa9p_-63" value="7.2 moveFiles" style="edgeLabel;html=1;align=center;verticalAlign=middle;resizable=0;points=[];" parent="m60XX_yXv6EZRLRGa9p_-62" vertex="1" connectable="0">
          <mxGeometry x="0.4577" relative="1" as="geometry">
            <mxPoint x="-16" as="offset" />
          </mxGeometry>
        </mxCell>
        <mxCell id="m60XX_yXv6EZRLRGa9p_-7" value="Child 1" style="rounded=1;whiteSpace=wrap;html=1;" parent="1" vertex="1">
          <mxGeometry x="990" y="180" width="120" height="60" as="geometry" />
        </mxCell>
        <mxCell id="m60XX_yXv6EZRLRGa9p_-8" value="Child 2" style="rounded=1;whiteSpace=wrap;html=1;" parent="1" vertex="1">
          <mxGeometry x="1040" y="390" width="120" height="60" as="geometry" />
        </mxCell>
        <mxCell id="m60XX_yXv6EZRLRGa9p_-9" value="" style="rounded=0;whiteSpace=wrap;html=1;" parent="1" vertex="1">
          <mxGeometry x="690" y="190" width="80" height="40" as="geometry" />
        </mxCell>
        <mxCell id="m60XX_yXv6EZRLRGa9p_-10" value="" style="rounded=0;whiteSpace=wrap;html=1;" parent="1" vertex="1">
          <mxGeometry x="670" y="400" width="80" height="40" as="geometry" />
        </mxCell>
        <mxCell id="m60XX_yXv6EZRLRGa9p_-11" value="" style="endArrow=none;html=1;rounded=0;dashed=1;exitX=1;exitY=0;exitDx=0;exitDy=0;entryX=0;entryY=0;entryDx=0;entryDy=0;" parent="1" source="m60XX_yXv6EZRLRGa9p_-5" target="m60XX_yXv6EZRLRGa9p_-9" edge="1">
          <mxGeometry width="50" height="50" relative="1" as="geometry">
            <mxPoint x="490" y="280" as="sourcePoint" />
            <mxPoint x="660" y="190" as="targetPoint" />
          </mxGeometry>
        </mxCell>
        <mxCell id="m60XX_yXv6EZRLRGa9p_-12" value="" style="endArrow=none;html=1;rounded=0;dashed=1;exitX=1;exitY=1;exitDx=0;exitDy=0;entryX=0;entryY=1;entryDx=0;entryDy=0;" parent="1" source="m60XX_yXv6EZRLRGa9p_-5" target="m60XX_yXv6EZRLRGa9p_-9" edge="1">
          <mxGeometry width="50" height="50" relative="1" as="geometry">
            <mxPoint x="490" y="330" as="sourcePoint" />
            <mxPoint x="660" y="230" as="targetPoint" />
          </mxGeometry>
        </mxCell>
        <mxCell id="m60XX_yXv6EZRLRGa9p_-13" value="" style="endArrow=none;html=1;rounded=0;dashed=1;exitX=1;exitY=0;exitDx=0;exitDy=0;entryX=0;entryY=0;entryDx=0;entryDy=0;" parent="1" source="m60XX_yXv6EZRLRGa9p_-5" target="m60XX_yXv6EZRLRGa9p_-10" edge="1">
          <mxGeometry width="50" height="50" relative="1" as="geometry">
            <mxPoint x="490" y="290" as="sourcePoint" />
            <mxPoint x="680" y="200" as="targetPoint" />
          </mxGeometry>
        </mxCell>
        <mxCell id="m60XX_yXv6EZRLRGa9p_-14" value="" style="endArrow=none;html=1;rounded=0;dashed=1;exitX=1.025;exitY=0.094;exitDx=0;exitDy=0;entryX=0;entryY=1;entryDx=0;entryDy=0;exitPerimeter=0;" parent="1" source="m60XX_yXv6EZRLRGa9p_-4" target="m60XX_yXv6EZRLRGa9p_-10" edge="1">
          <mxGeometry width="50" height="50" relative="1" as="geometry">
            <mxPoint x="490" y="340" as="sourcePoint" />
            <mxPoint x="680" y="240" as="targetPoint" />
          </mxGeometry>
        </mxCell>
        <mxCell id="m60XX_yXv6EZRLRGa9p_-21" style="edgeStyle=orthogonalEdgeStyle;rounded=0;orthogonalLoop=1;jettySize=auto;html=1;" parent="1" source="m60XX_yXv6EZRLRGa9p_-15" edge="1">
          <mxGeometry relative="1" as="geometry">
            <mxPoint x="-290" y="305" as="targetPoint" />
          </mxGeometry>
        </mxCell>
        <mxCell id="m60XX_yXv6EZRLRGa9p_-22" value="1. sem_post()" style="edgeLabel;html=1;align=center;verticalAlign=middle;resizable=0;points=[];" parent="m60XX_yXv6EZRLRGa9p_-21" vertex="1" connectable="0">
          <mxGeometry x="-0.1556" y="-1" relative="1" as="geometry">
            <mxPoint x="11" y="-18" as="offset" />
          </mxGeometry>
        </mxCell>
        <mxCell id="m60XX_yXv6EZRLRGa9p_-15" value="Monitor_directory" style="rounded=1;whiteSpace=wrap;html=1;" parent="1" vertex="1">
          <mxGeometry x="-550" y="275" width="120" height="60" as="geometry" />
        </mxCell>
        <mxCell id="m60XX_yXv6EZRLRGa9p_-17" value="sem_notification" style="text;strokeColor=none;fillColor=none;html=1;fontSize=16;fontStyle=1;verticalAlign=middle;align=center;" parent="1" vertex="1">
          <mxGeometry x="-290" y="285" width="150" height="40" as="geometry" />
        </mxCell>
        <mxCell id="m60XX_yXv6EZRLRGa9p_-26" value="input" style="sketch=0;pointerEvents=1;shadow=0;dashed=0;html=1;strokeColor=none;fillColor=#434445;aspect=fixed;labelPosition=center;verticalLabelPosition=bottom;verticalAlign=top;align=center;outlineConnect=0;shape=mxgraph.vvd.folder;" parent="1" vertex="1">
          <mxGeometry x="415" y="20" width="50" height="38" as="geometry" />
        </mxCell>
        <mxCell id="m60XX_yXv6EZRLRGa9p_-30" value="" style="rounded=0;whiteSpace=wrap;html=1;" parent="1" vertex="1">
          <mxGeometry x="260" y="292.5" width="60" height="25" as="geometry" />
        </mxCell>
        <mxCell id="m60XX_yXv6EZRLRGa9p_-31" value="" style="endArrow=none;html=1;rounded=0;dashed=1;exitX=0;exitY=1;exitDx=0;exitDy=0;entryX=1;entryY=1;entryDx=0;entryDy=0;" parent="1" source="m60XX_yXv6EZRLRGa9p_-5" target="m60XX_yXv6EZRLRGa9p_-30" edge="1">
          <mxGeometry width="50" height="50" relative="1" as="geometry">
            <mxPoint x="490" y="340" as="sourcePoint" />
            <mxPoint x="680" y="240" as="targetPoint" />
          </mxGeometry>
        </mxCell>
        <mxCell id="m60XX_yXv6EZRLRGa9p_-32" value="" style="endArrow=none;html=1;rounded=0;dashed=1;exitX=0;exitY=0;exitDx=0;exitDy=0;entryX=1;entryY=0;entryDx=0;entryDy=0;" parent="1" source="m60XX_yXv6EZRLRGa9p_-5" target="m60XX_yXv6EZRLRGa9p_-30" edge="1">
          <mxGeometry width="50" height="50" relative="1" as="geometry">
            <mxPoint x="490" y="290" as="sourcePoint" />
            <mxPoint x="680" y="200" as="targetPoint" />
          </mxGeometry>
        </mxCell>
        <mxCell id="m60XX_yXv6EZRLRGa9p_-36" value="" style="rounded=0;whiteSpace=wrap;html=1;" parent="1" vertex="1">
          <mxGeometry x="827" y="180" width="50" height="270" as="geometry" />
        </mxCell>
        <mxCell id="m60XX_yXv6EZRLRGa9p_-37" value="" style="rounded=0;whiteSpace=wrap;html=1;" parent="1" vertex="1">
          <mxGeometry x="827" y="220" width="50" height="190" as="geometry" />
        </mxCell>
        <mxCell id="m60XX_yXv6EZRLRGa9p_-38" value="sem 1" style="text;html=1;align=center;verticalAlign=middle;whiteSpace=wrap;rounded=0;" parent="1" vertex="1">
          <mxGeometry x="822" y="186" width="60" height="30" as="geometry" />
        </mxCell>
        <mxCell id="m60XX_yXv6EZRLRGa9p_-39" value="sem 2" style="text;html=1;align=center;verticalAlign=middle;whiteSpace=wrap;rounded=0;" parent="1" vertex="1">
          <mxGeometry x="823" y="416" width="60" height="30" as="geometry" />
        </mxCell>
        <mxCell id="m60XX_yXv6EZRLRGa9p_-43" value="sem_parent_write" style="rounded=0;whiteSpace=wrap;html=1;" parent="1" vertex="1">
          <mxGeometry x="450" y="620" width="120" height="60" as="geometry" />
        </mxCell>
        <mxCell id="m60XX_yXv6EZRLRGa9p_-53" style="edgeStyle=orthogonalEdgeStyle;rounded=0;orthogonalLoop=1;jettySize=auto;html=1;entryX=0.5;entryY=1;entryDx=0;entryDy=0;exitX=0.5;exitY=1;exitDx=0;exitDy=0;" parent="1" source="m60XX_yXv6EZRLRGa9p_-6" target="m60XX_yXv6EZRLRGa9p_-36" edge="1">
          <mxGeometry relative="1" as="geometry">
            <mxPoint x="80" y="345" as="sourcePoint" />
            <mxPoint x="862" y="190" as="targetPoint" />
            <Array as="points">
              <mxPoint x="100" y="335" />
              <mxPoint x="100" y="540" />
              <mxPoint x="1180" y="540" />
              <mxPoint x="1180" y="490" />
              <mxPoint x="852" y="490" />
            </Array>
          </mxGeometry>
        </mxCell>
        <mxCell id="m60XX_yXv6EZRLRGa9p_-54" value="5. sem_ post" style="edgeLabel;html=1;align=center;verticalAlign=middle;resizable=0;points=[];" parent="m60XX_yXv6EZRLRGa9p_-53" vertex="1" connectable="0">
          <mxGeometry x="-0.5819" y="-6" relative="1" as="geometry">
            <mxPoint x="793" y="-446" as="offset" />
          </mxGeometry>
        </mxCell>
        <mxCell id="m60XX_yXv6EZRLRGa9p_-61" value="output&lt;div&gt;&lt;br&gt;&lt;/div&gt;" style="sketch=0;pointerEvents=1;shadow=0;dashed=0;html=1;strokeColor=none;fillColor=#434445;aspect=fixed;labelPosition=center;verticalLabelPosition=bottom;verticalAlign=top;align=center;outlineConnect=0;shape=mxgraph.vvd.folder;" parent="1" vertex="1">
          <mxGeometry x="1340" y="30" width="50" height="38" as="geometry" />
        </mxCell>
        <mxCell id="m60XX_yXv6EZRLRGa9p_-68" value="sem_notification serve para o monitor_directory enviar uma notificação ao pai que detetou novos ficheiros" style="shape=note;strokeWidth=2;fontSize=14;size=20;whiteSpace=wrap;html=1;fillColor=#fff2cc;strokeColor=#d6b656;fontColor=#666600;align=center;verticalAlign=middle;" parent="1" vertex="1">
          <mxGeometry x="-370" y="350" width="230" height="110" as="geometry" />
        </mxCell>
        <mxCell id="m60XX_yXv6EZRLRGa9p_-69" value="o pai apenas vai buscar os id dos ficheiros X-candidate-data.txt" style="shape=note;strokeWidth=2;fontSize=14;size=20;whiteSpace=wrap;html=1;fillColor=#fff2cc;strokeColor=#d6b656;fontColor=#666600;align=center;verticalAlign=middle;" parent="1" vertex="1">
          <mxGeometry x="30" y="40" width="250" height="60" as="geometry" />
        </mxCell>
        <mxCell id="m60XX_yXv6EZRLRGa9p_-70" value="O pai assim que escreve um id de candidatura na shm, avisa o semaforo de um dos filhos e fica a espera que o filho avise que ja leu o valor, assim pode escrever outro valor" style="shape=note;strokeWidth=2;fontSize=13;size=20;whiteSpace=wrap;html=1;fillColor=#fff2cc;strokeColor=#d6b656;fontColor=#666600;align=center;verticalAlign=middle;" parent="1" vertex="1">
          <mxGeometry x="120" y="341.25" width="230" height="127.5" as="geometry" />
        </mxCell>
        <mxCell id="m60XX_yXv6EZRLRGa9p_-71" value="semaforo para o pai saber que pode escrever um novo valor" style="shape=note;strokeWidth=2;fontSize=13;size=20;whiteSpace=wrap;html=1;fillColor=#fff2cc;strokeColor=#d6b656;fontColor=#666600;align=center;verticalAlign=middle;" parent="1" vertex="1">
          <mxGeometry x="320" y="580" width="405" height="30" as="geometry" />
        </mxCell>
        <mxCell id="m60XX_yXv6EZRLRGa9p_-72" value="cada filho tem um semaforo, assim o pai consegue saber quando um filho terminou o processamento" style="shape=note;strokeWidth=2;fontSize=11;size=20;whiteSpace=wrap;html=1;fillColor=#fff2cc;strokeColor=#d6b656;fontColor=#666600;align=center;verticalAlign=middle;" parent="1" vertex="1">
          <mxGeometry x="890" y="310" width="130" height="100" as="geometry" />
        </mxCell>
        <mxCell id="m60XX_yXv6EZRLRGa9p_-73" value="assim que um filho lê o prefixo, move todos os ficheiros com esse prefixo para o diretório de output" style="shape=note;strokeWidth=2;fontSize=11;size=20;whiteSpace=wrap;html=1;fillColor=#fff2cc;strokeColor=#d6b656;fontColor=#666600;align=center;verticalAlign=middle;" parent="1" vertex="1">
          <mxGeometry x="1260" y="160" width="130" height="100" as="geometry" />
        </mxCell>
        <mxCell id="m60XX_yXv6EZRLRGa9p_-74" value="quando o pai nao tem mais valores para escrever na shm gera o report" style="shape=note;strokeWidth=2;fontSize=13;size=20;whiteSpace=wrap;html=1;fillColor=#fff2cc;strokeColor=#d6b656;fontColor=#666600;align=center;verticalAlign=middle;" parent="1" vertex="1">
          <mxGeometry x="140" y="750" width="280" height="50" as="geometry" />
        </mxCell>
      </root>
    </mxGraphModel>
  </diagram>
</mxfile>
